<?xml version="1.0" encoding="UTF-8"?>
<svg width="24px" height="24px" viewBox="0 0 24 24" version="1.1" xmlns="http://www.w3.org/2000/svg" xmlns:xlink="http://www.w3.org/1999/xlink">
    <!-- Generator: Sketch 51.2 (57519) - http://www.bohemiancoding.com/sketch -->
    <title>ic_add</title>
    <desc>Created with Sketch.</desc>
    <defs></defs>
    <g id="Symbols" stroke="none" stroke-width="1" fill="none" fill-rule="evenodd">
        <g id="Icon/Add" fill="#0066D3" fill-rule="nonzero">
            <g id="ic_add">
                <path d="M12,0 C5.4,0 0,5.4 0,12 C0,18.6 5.4,24 12,24 C18.6,24 24,18.6 24,12 C24,5.4 18.6,0 12,0 Z M17,13 L13,13 L13,17 C13,17.6 12.6,18 12,18 C11.4,18 11,17.6 11,17 L11,13 L7,13 C6.4,13 6,12.6 6,12 C6,11.4 6.4,11 7,11 L11,11 L11,7 C11,6.4 11.4,6 12,6 C12.6,6 13,6.4 13,7 L13,11 L17,11 C17.6,11 18,11.4 18,12 C18,12.6 17.6,13 17,13 Z" id="Shape"></path>
            </g>
        </g>
    </g>
</svg>