<?xml version="1.0" encoding="UTF-8"?>
<svg width="24px" height="24px" viewBox="0 0 24 24" version="1.1" xmlns="http://www.w3.org/2000/svg" xmlns:xlink="http://www.w3.org/1999/xlink">
    <!-- Generator: Sketch 51.2 (57519) - http://www.bohemiancoding.com/sketch -->
    <title>ic_delete</title>
    <desc>Created with Sketch.</desc>
    <defs></defs>
    <g id="Symbols" stroke="none" stroke-width="1" fill="none" fill-rule="evenodd">
        <g id="Icon/Trash" fill="#FFFFFF" fill-rule="nonzero">
            <g id="ic_delete">
                <path d="M3,8 L3,23 C3,23.552 3.448,24 4,24 L20,24 C20.552,24 21,23.552 21,23 L21,8 L3,8 Z M9,19 L7,19 L7,13 L9,13 L9,19 Z M13,19 L11,19 L11,13 L13,13 L13,19 Z M17,19 L15,19 L15,13 L17,13 L17,19 Z" id="Shape"></path>
                <path d="M23,4 L17,4 L17,1 C17,0.448 16.553,0 16,0 L8,0 C7.447,0 7,0.448 7,1 L7,4 L1,4 C0.447,4 0,4.448 0,5 C0,5.552 0.447,6 1,6 L23,6 C23.553,6 24,5.552 24,5 C24,4.448 23.553,4 23,4 Z M9,2 L15,2 L15,4 L9,4 L9,2 Z" id="Shape"></path>
            </g>
        </g>
    </g>
</svg>