<?xml version="1.0" encoding="UTF-8"?>
<svg width="24px" height="24px" viewBox="0 0 24 24" version="1.1" xmlns="http://www.w3.org/2000/svg" xmlns:xlink="http://www.w3.org/1999/xlink">
    <!-- Generator: Sketch 51.2 (57519) - http://www.bohemiancoding.com/sketch -->
    <title>ic_settings</title>
    <desc>Created with Sketch.</desc>
    <defs></defs>
    <g id="Symbols" stroke="none" stroke-width="1" fill="none" fill-rule="evenodd">
        <g id="Icon/Settings" fill="#0066D3" fill-rule="nonzero">
            <g id="ic_settings" transform="translate(1.000000, 1.000000)">
                <path d="M20,9 L18.7,9 C18.5,8.3 18.2,7.6 17.8,6.9 L18.7,6 C19.5,5.2 19.5,4 18.7,3.2 C17.9,2.4 16.7,2.4 15.9,3.2 L15,4.1 C14.4,3.7 13.7,3.4 12.9,3.2 L12.9,2 C12.9,0.9 12,0 10.9,0 C9.8,0 8.9,0.9 8.9,2 L8.9,3.3 C8.3,3.5 7.6,3.7 6.9,4.1 L6.1,3.2 C5.3,2.4 4.1,2.4 3.3,3.2 C2.5,4 2.5,5.2 3.3,6 L4.2,6.9 C3.7,7.6 3.5,8.3 3.3,9 L2,9 C0.9,9 0,9.9 0,11 C0,12.1 0.9,13 2,13 L3.3,13 C3.5,13.7 3.8,14.4 4.2,15.1 L3.3,16 C2.5,16.8 2.5,18 3.3,18.8 C4.1,19.6 5.3,19.6 6.1,18.8 L7,17.9 C7.6,18.3 8.3,18.6 9.1,18.8 L9.1,20 C9.1,21.1 10,22 11.1,22 C12.2,22 13.1,21.1 13.1,20 L13.1,18.7 C13.8,18.5 14.5,18.2 15.2,17.8 L16.1,18.7 C16.9,19.5 18.1,19.5 18.9,18.7 C19.7,17.9 19.7,16.7 18.9,15.9 L18,15 C18.4,14.4 18.7,13.7 18.9,12.9 L20,12.9 C21.1,12.9 22,12 22,10.9 C22,9.9 21.1,9 20,9 Z M11,14 C9.3,14 8,12.7 8,11 C8,9.3 9.3,8 11,8 C12.7,8 14,9.3 14,11 C14,12.7 12.7,14 11,14 Z" id="Shape"></path>
            </g>
        </g>
    </g>
</svg>