<?xml version="1.0" encoding="UTF-8"?>
<svg width="24px" height="24px" viewBox="0 0 24 24" version="1.1" xmlns="http://www.w3.org/2000/svg" xmlns:xlink="http://www.w3.org/1999/xlink">
    <!-- Generator: Sketch 51.2 (57519) - http://www.bohemiancoding.com/sketch -->
    <title>ic_search</title>
    <desc>Created with Sketch.</desc>
    <defs></defs>
    <g id="Symbols" stroke="none" stroke-width="1" fill="none" fill-rule="evenodd">
        <g id="Icon/Search_white" fill="#FFFFFF" fill-rule="nonzero">
            <g id="ic_search">
                <path d="M23.6942609,20.7433043 L19.1342609,16.1833043 C20.2288696,14.5335652 20.8695652,12.5582609 20.8695652,10.4347826 C20.8695652,4.68104348 16.1885217,0 10.4347826,0 C4.68104348,0 0,4.68104348 0,10.4347826 C0,16.1885217 4.68104348,20.8695652 10.4347826,20.8695652 C12.5582609,20.8695652 14.5335652,20.2288696 16.1833043,19.1342609 L20.7422609,23.6942609 C21.1502609,24.1022609 21.8107826,24.1022609 22.2177391,23.6942609 L23.6932174,22.2187826 C24.1012174,21.8107826 24.1022609,21.1502609 23.6942609,20.7433043 Z M2.08695652,10.4347826 C2.08695652,5.832 5.832,2.08695652 10.4347826,2.08695652 C15.0375652,2.08695652 18.7826087,5.832 18.7826087,10.4347826 C18.7826087,15.0375652 15.0375652,18.7826087 10.4347826,18.7826087 C5.832,18.7826087 2.08695652,15.0375652 2.08695652,10.4347826 Z" id="Shape"></path>
            </g>
        </g>
    </g>
</svg>